<svg width="29" height="14" viewBox="0 0 29 14" fill="none" xmlns="http://www.w3.org/2000/svg">
<rect width="29" height="14" fill="#F5F5F5"/>
<path d="M14.5256 4.92882C13.5144 3.13106 12.4331 1.666 12.3532 1.55894C10.7226 2.33059 9.50541 3.83271 9.12576 5.64282C9.27894 5.64612 11.7166 5.67494 14.5256 4.92882ZM15.2536 6.89376C15.3302 6.86906 15.4076 6.846 15.4842 6.82459C15.3376 6.49188 15.1771 6.15918 15.0091 5.82976C11.9982 6.73153 9.10682 6.66647 9.00471 6.66318C9.00306 6.72494 9.00059 6.78671 9.00059 6.84929C9.00059 8.35306 9.56882 9.72341 10.5011 10.7602C10.5002 10.7586 10.4978 10.7545 10.4978 10.7545C10.4978 10.7545 12.0979 7.91494 15.2536 6.89376ZM11.2538 11.4602L11.2546 11.4569C11.2118 11.4232 11.1656 11.3927 11.1228 11.3565C11.2002 11.4191 11.2538 11.4602 11.2538 11.4602ZM13.4476 1.17024C13.4419 1.17188 13.4378 1.17271 13.432 1.17353C13.4411 1.17188 13.4476 1.17106 13.4476 1.17024ZM18.7116 2.45906C17.6822 1.55153 16.33 0.999765 14.8493 0.999765C14.3733 0.999765 13.9129 1.05741 13.4715 1.16447C13.5605 1.28224 14.6574 2.74071 15.658 4.57635C17.8626 3.75035 18.696 2.48376 18.7116 2.45906ZM14.8485 13.6978C11.0668 13.6978 8 10.6309 8 6.84847C8 3.066 11.0668 0 14.8485 0C18.6301 0 21.6969 3.06682 21.6969 6.84847C21.6969 10.6301 18.6309 13.6978 14.8485 13.6978ZM15.8433 7.80624C12.4108 9.002 11.2776 11.4092 11.2546 11.4578C12.2469 12.2335 13.4921 12.6996 14.8485 12.6996C15.658 12.6996 16.4305 12.5333 17.1313 12.236C17.0448 11.7238 16.7047 9.93176 15.882 7.79471C15.8696 7.798 15.8573 7.80212 15.8433 7.80624ZM16.1068 5.44847C16.2444 5.72682 16.3745 6.01094 16.4964 6.29671C16.54 6.39718 16.582 6.49847 16.6224 6.59812C18.6425 6.34447 20.6321 6.77518 20.6964 6.79C20.6824 5.40153 20.1866 4.13 19.3664 3.13353C19.354 3.15165 18.416 4.50553 16.1068 5.44847ZM16.9781 7.52294C17.7465 9.63282 18.0586 11.3507 18.1171 11.6999C19.4298 10.8129 20.3645 9.408 20.6247 7.77659C20.5078 7.73953 18.8698 7.21988 16.9781 7.52294Z" fill="black"/>
</svg>
