<svg width="29" height="14" viewBox="0 0 29 14" fill="none" xmlns="http://www.w3.org/2000/svg">
<rect width="29" height="14" fill="#F5F5F5"/>
<path d="M13.6132 6.57353C13.6132 6.57353 14.9292 6.47141 14.9292 4.86388C14.93 3.25553 13.8528 2.4707 12.4891 2.4707H8V11.4571H12.4891C12.4891 11.4571 15.2289 11.5476 15.2289 8.80364C15.2289 8.80364 15.3484 6.57353 13.6132 6.57353ZM9.97812 4.06835H12.4882C12.4882 4.06835 13.0985 4.06835 13.0985 5.00388C13.0985 5.93859 12.7394 6.07447 12.3326 6.07447H9.97812V4.06835ZM12.3614 9.86023H9.97812V7.458H12.4882C12.4882 7.458 13.3974 7.44647 13.3974 8.69164C13.3982 9.74329 12.7188 9.852 12.3614 9.86023ZM18.8829 4.75764C15.5666 4.75764 15.5699 8.20906 15.5699 8.20906C15.5699 8.20906 15.3418 11.6456 18.8829 11.6456C18.8829 11.6456 21.8345 11.8219 21.8345 9.25576H20.3175C20.3175 9.25576 20.3678 10.2226 18.934 10.2226C18.934 10.2226 17.4146 10.3288 17.4146 8.65788H21.8855C21.8855 8.65706 22.3739 4.75764 18.8829 4.75764ZM20.2327 7.458H17.3998C17.3998 7.458 17.5851 6.07447 18.9175 6.07447C20.2484 6.07364 20.2327 7.458 20.2327 7.458ZM20.5852 3.00023H17.0275V4.10788H20.5852V3.00023Z" fill="black"/>
</svg>
