<svg width="29" height="14" viewBox="0 0 29 14" fill="none" xmlns="http://www.w3.org/2000/svg">
<rect width="29" height="14" fill="#F5F5F5"/>
<path d="M19.2313 6.99918C19.2313 9.33635 17.3347 11.2313 14.9984 11.2313C12.6612 11.2313 10.7671 9.33635 10.7671 6.99918C10.7671 6.72082 10.7942 6.44906 10.8461 6.18553H8V11.8111C8 13.0192 8.97918 13.9984 10.1873 13.9984H19.8111C21.0167 13.9984 21.9984 13.0192 21.9984 11.8111V6.18553H19.1522C19.2041 6.44906 19.2313 6.72082 19.2313 6.99918ZM19.8111 0H10.1873C8.97918 0 8 0.979176 8 2.18729V4.55741H11.5436C12.3095 3.47447 13.572 2.76706 14.9984 2.76706C16.4264 2.76706 17.6888 3.47365 18.4531 4.55741H21.9984V2.18729C21.9984 0.979176 21.0167 0 19.8111 0ZM20.8808 2.702C20.8808 2.91694 20.7038 3.09318 20.4896 3.09318H19.3169C19.1012 3.09318 18.9266 2.91776 18.9266 2.702V1.53012C18.9266 1.31518 19.1012 1.13894 19.3169 1.13894H20.4896C20.7038 1.13894 20.8808 1.31435 20.8808 1.53012V2.702ZM17.6024 6.99918C17.6024 5.56047 16.4371 4.39435 14.9984 4.39435C13.5613 4.39435 12.3944 5.56129 12.3944 6.99918C12.3944 8.43706 13.5613 9.60235 14.9984 9.60235C16.4371 9.60235 17.6024 8.43706 17.6024 6.99918Z" fill="black"/>
</svg>
