<svg width="29" height="14" viewBox="0 0 29 14" fill="none" xmlns="http://www.w3.org/2000/svg">
<rect width="29" height="14" fill="#F5F5F5"/>
<path d="M11.1706 1.49635C11.1706 2.32318 10.5604 2.99271 9.55565 2.99271C8.61024 2.99353 8 2.324 8 1.49635C8 0.649765 8.63 0 9.59518 0C10.5595 0 11.1508 0.649765 11.1706 1.49635ZM8.07906 13.804V4.17447H11.0718V13.8032H8.07906V13.804Z" fill="black"/>
<path d="M12.8629 7.24709C12.8629 6.04556 12.8242 5.04168 12.7847 4.17533H15.3838L15.5221 5.51439H15.5806C15.9742 4.88356 16.9394 3.95874 18.5535 3.95874C20.5226 3.95792 22 5.27721 22 8.11345V13.804H19.0065V8.46756C19.0065 7.22733 18.5741 6.38074 17.4903 6.38074C16.6627 6.38074 16.1711 6.95145 15.9553 7.50321C15.8754 7.70003 15.8565 7.97592 15.8565 8.25098V13.804H12.8629V7.24709Z" fill="black"/>
</svg>
