<svg width="29" height="14" viewBox="0 0 29 14" fill="none" xmlns="http://www.w3.org/2000/svg">
<rect width="29" height="14" fill="#F5F5F5"/>
<path d="M14.6311 10.2562L12.4075 8.18007C12.2321 8.01619 11.948 8.01619 11.7726 8.18007L8 11.6949V12.1734C8 12.6197 8.39118 12.9829 8.86882 12.9829H21.0282C21.5059 12.9829 21.8971 12.6197 21.8971 12.1734V11.6949L18.1245 8.17843C17.9482 8.01619 17.6633 8.01619 17.4895 8.17843L15.266 10.2545C15.0906 10.4193 14.8065 10.4193 14.6311 10.2562ZM19.3573 7.0296L21.58 9.10572C21.7546 9.2696 21.8971 9.20702 21.8971 8.96737V4.50055C21.8971 4.26007 21.7546 4.19831 21.58 4.36219L19.3573 6.43831C19.1811 6.60137 19.1811 6.86572 19.3573 7.0296ZM8.86882 0.823486C8.39118 0.823486 8 1.18831 8 1.63384V1.7796L14.5973 7.95937C14.7719 8.12325 15.0552 8.12325 15.2298 7.95937L21.8971 1.70631V1.63384C21.8971 1.18831 21.5059 0.823486 21.0282 0.823486H8.86882ZM8 4.50055V8.96737C8 9.20702 8.14247 9.2696 8.31706 9.10572L10.5398 7.0296C10.716 6.86572 10.716 6.60137 10.5398 6.43749L8.31706 4.36219C8.14247 4.19831 8 4.26007 8 4.50055Z" fill="black"/>
</svg>
