<svg width="29" height="14" viewBox="0 0 29 14" fill="none" xmlns="http://www.w3.org/2000/svg">
<rect width="29" height="14" fill="#F5F5F5"/>
<g clip-path="url(#clip0_1_131)">
<path d="M22 2.902C21.4843 3.12989 20.9313 3.28466 20.3503 3.35389C20.943 2.99844 21.3988 2.43533 21.6127 1.76566C21.0589 2.09466 20.4437 2.33344 19.7895 2.46178C19.2653 1.90411 18.5179 1.55566 17.6927 1.55566C16.1068 1.55566 14.8203 2.84055 14.8203 4.42722C14.8203 4.652 14.8452 4.87133 14.895 5.08211C12.5072 4.96155 10.3909 3.81822 8.97454 2.08144C8.72721 2.50533 8.58565 2.99922 8.58565 3.52422C8.58565 4.52133 9.09276 5.40022 9.86354 5.91511C9.39299 5.90033 8.94965 5.77122 8.56232 5.55655C8.56232 5.56822 8.56232 5.57989 8.56232 5.59233C8.56232 6.98378 9.55243 8.14578 10.8661 8.40866C10.625 8.474 10.3714 8.509 10.1093 8.509C9.92499 8.509 9.74454 8.49266 9.56954 8.45844C9.93432 9.60022 10.996 10.4301 12.2521 10.4534C11.2698 11.2234 10.0315 11.6823 8.68599 11.6823C8.45343 11.6823 8.22554 11.6683 8.00076 11.6411C9.27165 12.457 10.7813 12.9314 12.4038 12.9314C17.6864 12.9314 20.5759 8.55489 20.5759 4.76011C20.5759 4.63489 20.5728 4.51044 20.5665 4.38755C21.1273 3.98466 21.615 3.47833 22 2.902Z" fill="black"/>
</g>
<defs>
<clipPath id="clip0_1_131">
<rect width="14" height="14" fill="white" transform="translate(8)"/>
</clipPath>
</defs>
</svg>
